<?xml version="1.0" encoding="UTF-8"?>
<svg version="1.1" xmlns="http://www.w3.org/2000/svg" width="500" height="500">
<path d="M0 0 C165 0 330 0 500 0 C500 165 500 330 500 500 C335 500 170 500 0 500 C0 335 0 170 0 0 Z " fill="#C5CDD2" transform="translate(0,0)"/>
<path d="M0 0 C2.57805257 2.26477318 4.04457766 3.60809821 5.14868164 6.92041016 C4.62918945 7.35611328 4.10969727 7.79181641 3.57446289 8.24072266 C-0.70002799 11.89102726 -4.33390712 15.5474124 -7.85131836 19.92041016 C-9.50479719 21.60207328 -11.17357793 23.26319487 -12.85131836 24.92041016 C-14.32735407 26.39489487 -15.80253323 27.87023728 -17.27709961 29.34619141 C-21.80183919 33.87093099 -26.32657878 38.39567057 -30.85131836 42.92041016 C-34.86557162 40.56337848 -38.51580559 37.92717367 -42.16381836 35.04541016 C-46.90106968 31.36147169 -51.60867328 27.86402645 -56.85131836 24.92041016 C-57.50100586 24.52595703 -58.15069336 24.13150391 -58.82006836 23.72509766 C-74.90006672 14.72256336 -94.89130482 12.20326827 -112.85131836 10.92041016 C-112.85131836 39.63041016 -112.85131836 68.34041016 -112.85131836 97.92041016 C-106.23714492 96.59757547 -101.02971148 95.51284499 -95.10131836 92.79541016 C-94.4194043 92.48756592 -93.73749023 92.17972168 -93.03491211 91.86254883 C-70.45212572 81.46409744 -50.97955582 65.59180246 -33.76538086 47.80712891 C-31.64333139 45.65018511 -29.4250639 43.66221011 -27.12817383 41.69287109 C-23.08877999 38.17404618 -19.27855575 34.47695514 -15.50756836 30.67431641 C-14.85300659 30.01833969 -14.19844482 29.36236298 -13.52404785 28.68650818 C-11.46408013 26.62100871 -9.4076447 24.5520342 -7.35131836 22.48291016 C-5.94269786 21.06926582 -4.53384569 19.6558523 -3.12475586 18.24267578 C0.30240297 14.80457866 3.72640183 11.36336359 7.14868164 7.92041016 C8.27030533 8.87573354 9.39107114 9.8320642 10.51147461 10.78881836 C11.13569305 11.32126663 11.7599115 11.8537149 12.40304565 12.40229797 C28.18713011 26.12910648 41.59323973 47.78193323 47.14868164 67.92041016 C47.14868164 68.58041016 47.14868164 69.24041016 47.14868164 69.92041016 C47.80868164 69.92041016 48.46868164 69.92041016 49.14868164 69.92041016 C50.13065657 73.48214214 51.10876507 77.04492481 52.08618164 80.60791016 C52.36397461 81.6153125 52.64176758 82.62271484 52.92797852 83.66064453 C53.19545898 84.63710937 53.46293945 85.61357422 53.73852539 86.61962891 C53.98465576 87.51512451 54.23078613 88.41062012 54.484375 89.33325195 C55.13066115 91.85022891 55.66392265 94.36788254 56.14868164 96.92041016 C56.80868164 96.92041016 57.46868164 96.92041016 58.14868164 96.92041016 C58.12805664 97.95166016 58.10743164 98.98291016 58.08618164 100.04541016 C58.04585391 103.76233106 58.04585391 103.76233106 58.63989258 106.74829102 C59.58065769 112.61362741 59.39111964 118.55456588 59.39868164 124.48291016 C59.40035339 125.16938629 59.40202515 125.85586243 59.40374756 126.56314087 C59.40800244 155.76989463 59.40800244 155.76989463 54.14868164 165.92041016 C53.85248539 167.28620398 53.60672034 168.66343878 53.39868164 170.04541016 C52.43410666 175.22324867 50.87861873 180.12286225 49.21118164 185.10791016 C48.95820313 185.86797363 48.70522461 186.62803711 48.44458008 187.41113281 C46.88016381 192.01702332 45.12153853 196.47412074 43.14868164 200.92041016 C42.48868164 200.92041016 41.82868164 200.92041016 41.14868164 200.92041016 C41.00172852 201.79052734 41.00172852 201.79052734 40.85180664 202.67822266 C39.83614913 207.98415757 38.37020444 211.4908163 35.14868164 215.92041016 C34.81868164 216.78666016 34.48868164 217.65291016 34.14868164 218.54541016 C33.14868164 220.92041016 33.14868164 220.92041016 31.33618164 222.72900391 C28.9577406 225.11169216 27.10883719 227.6218597 25.14868164 230.35791016 C15.8884957 242.86836003 4.6037261 255.92011345 -8.85131836 263.92041016 C-9.49069336 264.58041016 -10.13006836 265.24041016 -10.78881836 265.92041016 C-13.23821838 268.29558593 -15.8005 269.42745649 -18.85131836 270.92041016 C-19.33358887 271.40727295 -19.81585938 271.89413574 -20.31274414 272.39575195 C-22.93418111 274.99347869 -26.40224245 276.22779189 -29.72631836 277.73291016 C-31.27843651 278.44507386 -32.83051957 279.15731405 -34.38256836 279.86962891 C-35.14698242 280.21815918 -35.91139648 280.56668945 -36.69897461 280.92578125 C-38.5438166 281.77830919 -40.37139728 282.66801907 -42.19506836 283.56494141 C-81.55103686 302.78647757 -126.79595969 303.10730683 -167.85131836 289.92041016 C-169.52428282 289.26970889 -171.19306815 288.60774448 -172.85131836 287.92041016 C-172.85131836 287.26041016 -172.85131836 286.60041016 -172.85131836 285.92041016 C-173.75881836 285.81728516 -174.66631836 285.71416016 -175.60131836 285.60791016 C-179.01681656 284.88540092 -180.17570481 284.02846932 -182.85131836 281.92041016 C-184.51031474 281.22363168 -186.16968421 280.52771422 -187.83178711 279.83837891 C-201.64706516 273.55870706 -215.02208374 263.46329482 -225.85131836 252.92041016 C-221.80810382 248.00298707 -217.48103673 243.50921865 -212.94946289 239.03808594 C-210.32599766 236.43594247 -207.80668097 233.79804264 -205.41381836 230.98291016 C-200.57559912 225.3027459 -195.16234818 220.15295185 -189.85131836 214.92041016 C-189.35245117 215.26072266 -188.85358398 215.60103516 -188.33959961 215.95166016 C-156.86501137 237.1984199 -124.6787177 246.92548411 -86.85131836 239.92041016 C-76.06603915 237.70547665 -66.55580454 233.96828745 -56.85131836 228.92041016 C-56.24900391 228.61087402 -55.64668945 228.30133789 -55.02612305 227.98242188 C-45.99122384 223.27949082 -38.43256971 217.69632711 -30.85131836 210.92041016 C-33.19291458 205.55086181 -37.50337015 201.92935108 -41.60131836 197.85791016 C-42.45516113 197.00753174 -43.30900391 196.15715332 -44.1887207 195.28100586 C-51.02067127 188.56481854 -58.08012956 182.51039061 -65.85131836 176.92041016 C-67.02307617 176.05609375 -67.02307617 176.05609375 -68.21850586 175.17431641 C-85.94870021 162.67225629 -104.96293473 158.69688207 -126.33959961 161.35400391 C-145.71240328 165.48515807 -161.01407557 180.64737707 -174.85131836 193.92041016 C-175.6750293 194.70287109 -176.49874023 195.48533203 -177.34741211 196.29150391 C-182.09761022 200.90998076 -186.24135174 205.82387233 -190.37084961 210.99853516 C-193.68553966 214.90308344 -197.2790118 218.47373555 -200.95410156 222.03686523 C-203.76141316 224.70188099 -203.76141316 224.70188099 -205.85131836 227.92041016 C-206.51131836 227.92041016 -207.17131836 227.92041016 -207.85131836 227.92041016 C-208.0960791 228.49114258 -208.34083984 229.061875 -208.59301758 229.64990234 C-210.07151306 232.3177347 -211.81258384 234.10757331 -213.98413086 236.24853516 C-214.78979492 237.04775391 -215.59545898 237.84697266 -216.42553711 238.67041016 C-217.26729492 239.49541016 -218.10905273 240.32041016 -218.97631836 241.17041016 C-219.82581055 242.01087891 -220.67530273 242.85134766 -221.55053711 243.71728516 C-223.64636759 245.78956698 -225.74672549 247.85703408 -227.85131836 249.92041016 C-258.91228138 223.93992677 -275.95023439 184.43034116 -280.85131836 144.92041016 C-280.94558105 144.20022705 -281.03984375 143.48004395 -281.13696289 142.73803711 C-283.1491185 126.37262479 -282.06944745 110.04301318 -278.85131836 93.92041016 C-278.69034668 93.10362793 -278.529375 92.2868457 -278.36352539 91.4453125 C-273.41868035 67.30059843 -262.37042007 46.22513768 -248.16381836 26.29541016 C-247.64142578 25.56104736 -247.1190332 24.82668457 -246.58081055 24.07006836 C-243.05587171 19.24626378 -239.19303562 15.02168549 -234.85131836 10.92041016 C-231.759527 12.29656376 -229.65493083 13.87199461 -227.27612305 16.26855469 C-226.5957196 16.94910919 -225.91531616 17.6296637 -225.21429443 18.33084106 C-224.49123108 19.06422699 -223.76816772 19.79761292 -223.02319336 20.55322266 C-221.89968475 21.6809761 -221.89968475 21.6809761 -220.753479 22.83151245 C-218.36468816 25.23148917 -215.98294939 27.63833025 -213.60131836 30.04541016 C-211.98198667 31.67477368 -210.36220034 33.3036855 -208.74194336 34.93212891 C-204.77311331 38.92299821 -200.81004937 42.91952431 -196.85131836 46.92041016 C-196.54222468 43.95519129 -196.54222468 43.95519129 -198.18005371 42.23091125 C-198.80182495 41.61580185 -199.42359619 41.00069244 -200.06420898 40.36694336 C-201.11529846 39.31619377 -201.11529846 39.31619377 -202.18762207 38.24421692 C-202.95320435 37.4941185 -203.71878662 36.74402008 -204.50756836 35.97119141 C-205.28442993 35.19857468 -206.0612915 34.42595795 -206.86169434 33.62992859 C-209.35130363 31.157149 -211.85112794 28.69498645 -214.35131836 26.23291016 C-216.03819802 24.56107171 -217.72440493 22.88855417 -219.40991211 21.21533203 C-223.5492655 17.1091049 -227.69705943 13.01155374 -231.85131836 8.92041016 C-230.89529483 7.79626135 -229.93802285 6.67317421 -228.98022461 5.55053711 C-228.44727783 4.92500443 -227.91433105 4.29947174 -227.36523438 3.65498352 C-205.08718577 -21.87015085 -164.99153317 -38.8087238 -131.85473633 -41.87890625 C-82.841048 -45.15392265 -37.79718574 -32.05564518 0 0 Z " fill="#1C2B3B" transform="translate(362.851318359375,122.07958984375)"/>
<path d="M0 0 C2.57805257 2.26477318 4.04457766 3.60809821 5.14868164 6.92041016 C4.62918945 7.35611328 4.10969727 7.79181641 3.57446289 8.24072266 C-0.70002799 11.89102726 -4.33390712 15.5474124 -7.85131836 19.92041016 C-9.50479719 21.60207328 -11.17357793 23.26319487 -12.85131836 24.92041016 C-14.32735407 26.39489487 -15.80253323 27.87023728 -17.27709961 29.34619141 C-21.80183919 33.87093099 -26.32657878 38.39567057 -30.85131836 42.92041016 C-34.86557162 40.56337848 -38.51580559 37.92717367 -42.16381836 35.04541016 C-46.90106968 31.36147169 -51.60867328 27.86402645 -56.85131836 24.92041016 C-57.50100586 24.52595703 -58.15069336 24.13150391 -58.82006836 23.72509766 C-74.90006672 14.72256336 -94.89130482 12.20326827 -112.85131836 10.92041016 C-112.85131836 39.63041016 -112.85131836 68.34041016 -112.85131836 97.92041016 C-113.18131836 97.92041016 -113.51131836 97.92041016 -113.85131836 97.92041016 C-113.85131836 69.54041016 -113.85131836 41.16041016 -113.85131836 11.92041016 C-143.50521184 14.74459049 -166.25541805 21.68296178 -188.85131836 40.92041016 C-190.07141602 41.95101562 -190.07141602 41.95101562 -191.31616211 43.00244141 C-193.0612656 44.7742512 -193.0612656 44.7742512 -192.85522461 46.94384766 C-191.56930732 49.47565368 -190.00014738 50.77478692 -187.78881836 52.54541016 C-186.44219664 53.62933414 -185.12043814 54.74669118 -183.85131836 55.92041016 C-183.85131836 56.58041016 -183.85131836 57.24041016 -183.85131836 57.92041016 C-183.27381836 58.16662109 -182.69631836 58.41283203 -182.10131836 58.66650391 C-179.49229546 60.12049063 -177.88549012 61.79848707 -175.85131836 63.98291016 C-170.38502317 69.59473067 -163.9020973 75.39502069 -156.85131836 78.92041016 C-156.85131836 79.58041016 -156.85131836 80.24041016 -156.85131836 80.92041016 C-156.19131836 80.92041016 -155.53131836 80.92041016 -154.85131836 80.92041016 C-153.22631836 82.29541016 -153.22631836 82.29541016 -151.85131836 83.92041016 C-151.85131836 84.58041016 -151.85131836 85.24041016 -151.85131836 85.92041016 C-150.86131836 85.92041016 -149.87131836 85.92041016 -148.85131836 85.92041016 C-148.85131836 86.58041016 -148.85131836 87.24041016 -148.85131836 87.92041016 C-148.15651367 88.18595703 -147.46170898 88.45150391 -146.74584961 88.72509766 C-143.5945576 90.02644092 -140.58131665 91.50744399 -137.53881836 93.04541016 C-136.47018555 93.58423828 -135.40155273 94.12306641 -134.30053711 94.67822266 C-133.49229492 95.08814453 -132.68405273 95.49806641 -131.85131836 95.92041016 C-131.85131836 96.58041016 -131.85131836 97.24041016 -131.85131836 97.92041016 C-131.10881836 98.06478516 -130.36631836 98.20916016 -129.60131836 98.35791016 C-127.33104097 98.82228508 -125.09372356 99.33904584 -122.85131836 99.92041016 C-122.52131836 101.90041016 -122.19131836 103.88041016 -121.85131836 105.92041016 C-113.27131836 106.25041016 -104.69131836 106.58041016 -95.85131836 106.92041016 C-95.85131836 109.23041016 -95.85131836 111.54041016 -95.85131836 113.92041016 C-99.81131836 113.92041016 -103.77131836 113.92041016 -107.85131836 113.92041016 C-107.85131836 124.15041016 -107.85131836 134.38041016 -107.85131836 144.92041016 C-110.16131836 144.92041016 -112.47131836 144.92041016 -114.85131836 144.92041016 C-114.85131836 135.02041016 -114.85131836 125.12041016 -114.85131836 114.92041016 C-119.14131836 114.92041016 -123.43131836 114.92041016 -127.85131836 114.92041016 C-127.85131836 114.26041016 -127.85131836 113.60041016 -127.85131836 112.92041016 C-128.51131836 113.25041016 -129.17131836 113.58041016 -129.85131836 113.92041016 C-133.81131836 113.92041016 -137.77131836 113.92041016 -141.85131836 113.92041016 C-141.85131836 124.15041016 -141.85131836 134.38041016 -141.85131836 144.92041016 C-144.16131836 144.92041016 -146.47131836 144.92041016 -148.85131836 144.92041016 C-148.85131836 135.02041016 -148.85131836 125.12041016 -148.85131836 114.92041016 C-153.80131836 114.92041016 -158.75131836 114.92041016 -163.85131836 114.92041016 C-164.18131836 114.59041016 -164.51131836 114.26041016 -164.85131836 113.92041016 C-164.88890259 115.32117798 -164.88890259 115.32117798 -164.92724609 116.75024414 C-165.02218764 120.20366205 -165.12143094 123.65689975 -165.22363281 127.11010742 C-165.26703649 128.60680285 -165.30870749 130.10354954 -165.34863281 131.6003418 C-165.40620452 133.74755328 -165.46993552 135.89450537 -165.53491211 138.04150391 C-165.57156982 139.33499756 -165.60822754 140.62849121 -165.64599609 141.96118164 C-165.85131836 144.92041016 -165.85131836 144.92041016 -166.85131836 145.92041016 C-168.850902 145.96121799 -170.8517709 145.96295372 -172.85131836 145.92041016 C-173.18131836 146.58041016 -173.51131836 147.24041016 -173.85131836 147.92041016 C-175.17131836 145.94041016 -176.49131836 143.96041016 -177.85131836 141.92041016 C-178.18131836 142.91041016 -178.51131836 143.90041016 -178.85131836 144.92041016 C-187.10131836 144.92041016 -195.35131836 144.92041016 -203.85131836 144.92041016 C-203.90030273 143.06673828 -203.94928711 141.21306641 -203.99975586 139.30322266 C-204.0747725 136.88393614 -204.15032079 134.46466606 -204.22631836 132.04541016 C-204.25725586 130.82208984 -204.28819336 129.59876953 -204.32006836 128.33837891 C-204.35874023 127.17177734 -204.39741211 126.00517578 -204.43725586 124.80322266 C-204.46867676 123.72443848 -204.50009766 122.6456543 -204.5324707 121.53417969 C-204.59808158 118.76279362 -204.59808158 118.76279362 -206.85131836 116.92041016 C-207.00987305 117.52369141 -207.16842773 118.12697266 -207.33178711 118.74853516 C-208.84895291 123.94545669 -210.0455593 126.96301997 -214.85131836 129.92041016 C-217.61583868 131.30267032 -219.89745466 131.01566403 -222.97631836 130.98291016 C-225.88444336 130.95197266 -225.88444336 130.95197266 -228.85131836 130.92041016 C-228.85131836 135.87041016 -228.85131836 140.82041016 -228.85131836 145.92041016 C-230.83131836 145.92041016 -232.81131836 145.92041016 -234.85131836 145.92041016 C-234.85131836 146.58041016 -234.85131836 147.24041016 -234.85131836 147.92041016 C-233.53131836 148.25041016 -232.21131836 148.58041016 -230.85131836 148.92041016 C-230.78944336 149.53916016 -230.72756836 150.15791016 -230.66381836 150.79541016 C-230.39569336 151.49666016 -230.12756836 152.19791016 -229.85131836 152.92041016 C-228.69696289 153.20271484 -228.69696289 153.20271484 -227.51928711 153.49072266 C-223.29160975 155.75621301 -222.76039372 159.52085713 -221.35131836 163.92041016 C-220.76083858 165.65114352 -220.16581539 167.38033373 -219.56616211 169.10791016 C-219.27854004 169.93935547 -218.99091797 170.77080078 -218.69458008 171.62744141 C-217.34576545 175.29509254 -215.5928698 178.69768088 -213.69897461 182.10791016 C-212.85131836 183.92041016 -212.85131836 183.92041016 -212.85131836 186.92041016 C-212.19131836 186.92041016 -211.53131836 186.92041016 -210.85131836 186.92041016 C-210.85131836 187.91041016 -210.85131836 188.90041016 -210.85131836 189.92041016 C-210.19131836 189.92041016 -209.53131836 189.92041016 -208.85131836 189.92041016 C-207.65991211 191.50244141 -207.65991211 191.50244141 -206.28881836 193.73291016 C-203.7604679 197.64375766 -201.06324924 201.33737165 -198.16381836 204.98291016 C-197.04426758 206.3925 -197.04426758 206.3925 -195.90209961 207.83056641 C-195.2253418 208.52021484 -194.54858398 209.20986328 -193.85131836 209.92041016 C-192.86131836 209.92041016 -191.87131836 209.92041016 -190.85131836 209.92041016 C-192.50122041 214.21638155 -195.66874643 216.92558662 -198.91381836 220.04541016 C-202.85580776 223.61594382 -202.85580776 223.61594382 -205.85131836 227.92041016 C-206.51131836 227.92041016 -207.17131836 227.92041016 -207.85131836 227.92041016 C-208.0960791 228.49114258 -208.34083984 229.061875 -208.59301758 229.64990234 C-210.07151306 232.3177347 -211.81258384 234.10757331 -213.98413086 236.24853516 C-214.78979492 237.04775391 -215.59545898 237.84697266 -216.42553711 238.67041016 C-217.26729492 239.49541016 -218.10905273 240.32041016 -218.97631836 241.17041016 C-219.82581055 242.01087891 -220.67530273 242.85134766 -221.55053711 243.71728516 C-223.64636759 245.78956698 -225.74672549 247.85703408 -227.85131836 249.92041016 C-258.91228138 223.93992677 -275.95023439 184.43034116 -280.85131836 144.92041016 C-280.94558105 144.20022705 -281.03984375 143.48004395 -281.13696289 142.73803711 C-283.1491185 126.37262479 -282.06944745 110.04301318 -278.85131836 93.92041016 C-278.69034668 93.10362793 -278.529375 92.2868457 -278.36352539 91.4453125 C-273.41868035 67.30059843 -262.37042007 46.22513768 -248.16381836 26.29541016 C-247.64142578 25.56104736 -247.1190332 24.82668457 -246.58081055 24.07006836 C-243.05587171 19.24626378 -239.19303562 15.02168549 -234.85131836 10.92041016 C-231.759527 12.29656376 -229.65493083 13.87199461 -227.27612305 16.26855469 C-226.5957196 16.94910919 -225.91531616 17.6296637 -225.21429443 18.33084106 C-224.49123108 19.06422699 -223.76816772 19.79761292 -223.02319336 20.55322266 C-221.89968475 21.6809761 -221.89968475 21.6809761 -220.753479 22.83151245 C-218.36468816 25.23148917 -215.98294939 27.63833025 -213.60131836 30.04541016 C-211.98198667 31.67477368 -210.36220034 33.3036855 -208.74194336 34.93212891 C-204.77311331 38.92299821 -200.81004937 42.91952431 -196.85131836 46.92041016 C-196.54222468 43.95519129 -196.54222468 43.95519129 -198.18005371 42.23091125 C-198.80182495 41.61580185 -199.42359619 41.00069244 -200.06420898 40.36694336 C-201.11529846 39.31619377 -201.11529846 39.31619377 -202.18762207 38.24421692 C-202.95320435 37.4941185 -203.71878662 36.74402008 -204.50756836 35.97119141 C-205.28442993 35.19857468 -206.0612915 34.42595795 -206.86169434 33.62992859 C-209.35130363 31.157149 -211.85112794 28.69498645 -214.35131836 26.23291016 C-216.03819802 24.56107171 -217.72440493 22.88855417 -219.40991211 21.21533203 C-223.5492655 17.1091049 -227.69705943 13.01155374 -231.85131836 8.92041016 C-230.89529483 7.79626135 -229.93802285 6.67317421 -228.98022461 5.55053711 C-228.44727783 4.92500443 -227.91433105 4.29947174 -227.36523438 3.65498352 C-205.08718577 -21.87015085 -164.99153317 -38.8087238 -131.85473633 -41.87890625 C-82.841048 -45.15392265 -37.79718574 -32.05564518 0 0 Z " fill="#34556E" transform="translate(362.851318359375,122.07958984375)"/>
<path d="M0 0 C3.06268033 1.370801 5.20199357 2.93809422 7.59106445 5.28466797 C8.27469559 5.95231171 8.95832672 6.61995544 9.66267395 7.30783081 C10.38887436 8.02866852 11.11507477 8.74950623 11.86328125 9.4921875 C12.61465866 10.23453644 13.36603607 10.97688538 14.1401825 11.74172974 C15.72386227 13.31091757 17.30475839 14.88291904 18.88305664 16.45751953 C21.30875685 18.87127528 23.75247863 21.26575443 26.19726562 23.66015625 C27.73291624 25.18634836 29.2674604 26.71365476 30.80078125 28.2421875 C31.53710281 28.95897675 32.27342438 29.67576599 33.03205872 30.41427612 C33.69992905 31.08822418 34.36779938 31.76217224 35.0559082 32.45654297 C35.65007034 33.04563446 36.24423248 33.63472595 36.85639954 34.2416687 C38 36 38 36 37.82072449 38.04299927 C36.49751508 41.19816501 34.18906296 43.60089235 32 46.1875 C20.01361607 60.89904378 13.56684223 77.49025055 10 96 C11.98 96 13.96 96 16 96 C16 96.33 16 96.66 16 97 C10.39 97 4.78 97 -1 97 C-1 109.21 -1 121.42 -1 134 C1.31 134 3.62 134 6 134 C6 134.33 6 134.66 6 135 C4.02 135 2.04 135 0 135 C0 135.66 0 136.32 0 137 C1.32 137.33 2.64 137.66 4 138 C4.061875 138.61875 4.12375 139.2375 4.1875 139.875 C4.455625 140.57625 4.72375 141.2775 5 142 C6.15435547 142.28230469 6.15435547 142.28230469 7.33203125 142.5703125 C11.55970861 144.83580285 12.09092464 148.60044698 13.5 153 C14.09047978 154.73073336 14.68550297 156.45992358 15.28515625 158.1875 C15.57277832 159.01894531 15.86040039 159.85039062 16.15673828 160.70703125 C17.50555291 164.37468239 19.25844856 167.77727073 21.15234375 171.1875 C22 173 22 173 22 176 C22.66 176 23.32 176 24 176 C24 176.99 24 177.98 24 179 C24.66 179 25.32 179 26 179 C27.19140625 180.58203125 27.19140625 180.58203125 28.5625 182.8125 C31.09085046 186.7233475 33.78806912 190.4169615 36.6875 194.0625 C37.80705078 195.47208984 37.80705078 195.47208984 38.94921875 196.91015625 C39.62597656 197.59980469 40.30273438 198.28945313 41 199 C41.99 199 42.98 199 44 199 C42.35009794 203.29597139 39.18257193 206.00517646 35.9375 209.125 C31.9955106 212.69553366 31.9955106 212.69553366 29 217 C28.34 217 27.68 217 27 217 C26.75523926 217.57073242 26.51047852 218.14146484 26.25830078 218.72949219 C24.7798053 221.39732454 23.03873452 223.18716315 20.8671875 225.328125 C19.65869141 226.52695312 19.65869141 226.52695312 18.42578125 227.75 C17.58402344 228.575 16.74226563 229.4 15.875 230.25 C15.02550781 231.09046875 14.17601562 231.9309375 13.30078125 232.796875 C11.20495077 234.86915683 9.10459287 236.93662393 7 239 C-24.06096302 213.01951661 -41.09891604 173.50993101 -46 134 C-46.0942627 133.27981689 -46.18852539 132.55963379 -46.28564453 131.81762695 C-48.29780014 115.45221463 -47.21812909 99.12260303 -44 83 C-43.83902832 82.18321777 -43.67805664 81.36643555 -43.51220703 80.52490234 C-38.56736199 56.38018828 -27.51910171 35.30472753 -13.3125 15.375 C-12.79010742 14.64063721 -12.26771484 13.90627441 -11.72949219 13.1496582 C-8.20455335 8.32585363 -4.34171726 4.10127534 0 0 Z " fill="#34546D" transform="translate(128,133)"/>
<path d="M0 0 C3.87547124 3.15445333 7.61059096 6.31152546 11 10 C11 10.66 11 11.32 11 12 C11.5775 12.24621094 12.155 12.49242187 12.75 12.74609375 C15.3590229 14.20008047 16.96582824 15.87807691 19 18.0625 C24.46629518 23.67432051 30.94922106 29.47461053 38 33 C38 33.66 38 34.32 38 35 C38.66 35 39.32 35 40 35 C41.625 36.375 41.625 36.375 43 38 C43 38.66 43 39.32 43 40 C43.99 40 44.98 40 46 40 C46 40.66 46 41.32 46 42 C47.04220703 42.39832031 47.04220703 42.39832031 48.10546875 42.8046875 C51.25676076 44.10603076 54.27000171 45.58703383 57.3125 47.125 C58.38113281 47.66382813 59.44976562 48.20265625 60.55078125 48.7578125 C61.35902344 49.16773438 62.16726562 49.57765625 63 50 C63 50.66 63 51.32 63 52 C63.7425 52.144375 64.485 52.28875 65.25 52.4375 C67.52027739 52.90187492 69.75759479 53.41863569 72 54 C72.495 56.97 72.495 56.97 73 60 C85.87 60.495 85.87 60.495 99 61 C99 63.31 99 65.62 99 68 C95.04 68 91.08 68 87 68 C87 78.23 87 88.46 87 99 C84.69 99 82.38 99 80 99 C80 89.1 80 79.2 80 69 C75.71 69 71.42 69 67 69 C67 68.34 67 67.68 67 67 C66.01 67.495 66.01 67.495 65 68 C61.04 68 57.08 68 53 68 C53 78.23 53 88.46 53 99 C50.69 99 48.38 99 46 99 C46 89.1 46 79.2 46 69 C41.05 69 36.1 69 31 69 C30.67 68.67 30.34 68.34 30 68 C29.96241577 69.40076782 29.96241577 69.40076782 29.92407227 70.82983398 C29.82913072 74.28325189 29.72988742 77.7364896 29.62768555 81.18969727 C29.58428187 82.68639269 29.54261087 84.18313939 29.50268555 85.67993164 C29.44511384 87.82714312 29.38138284 89.97409521 29.31640625 92.12109375 C29.27974854 93.4145874 29.24309082 94.70808105 29.20532227 96.04077148 C29 99 29 99 28 100 C26.00041636 100.04080783 23.99954746 100.04254356 22 100 C21.67 100.66 21.34 101.32 21 102 C19.68 100.02 18.36 98.04 17 96 C16.505 97.485 16.505 97.485 16 99 C7.75 99 -0.5 99 -9 99 C-9.04898438 97.14632812 -9.09796875 95.29265625 -9.1484375 93.3828125 C-9.22345414 90.96352598 -9.29900243 88.5442559 -9.375 86.125 C-9.4059375 84.90167969 -9.436875 83.67835938 -9.46875 82.41796875 C-9.50742188 81.25136719 -9.54609375 80.08476562 -9.5859375 78.8828125 C-9.6173584 77.80402832 -9.6487793 76.72524414 -9.68115234 75.61376953 C-9.74676322 72.84238346 -9.74676322 72.84238346 -12 71 C-12.15855469 71.60328125 -12.31710938 72.2065625 -12.48046875 72.828125 C-13.99763455 78.02504653 -15.19424094 81.04260981 -20 84 C-22.76452033 85.38226016 -25.0461363 85.09525387 -28.125 85.0625 C-31.033125 85.0315625 -31.033125 85.0315625 -34 85 C-34 89.62 -34 94.24 -34 99 C-36.31 99 -38.62 99 -41 99 C-41 86.79 -41 74.58 -41 62 C-35.555 61.505 -35.555 61.505 -30 61 C-30.061875 60.0409375 -30.12375 59.081875 -30.1875 58.09375 C-30.17773611 53.23133421 -28.64146044 49.03114658 -27 44.5 C-26.68603271 43.62359863 -26.37206543 42.74719727 -26.04858398 41.84423828 C-21.48870092 29.499381 -15.58196217 19.03219435 -7 9 C-5.65776728 7.29864998 -4.32398617 5.59058771 -3 3.875 C-2.4225 3.12992188 -1.845 2.38484375 -1.25 1.6171875 C-0.63125 0.81667969 -0.63125 0.81667969 0 0 Z " fill="#364857" transform="translate(168,168)"/>
<path d="M0 0 C49.10672294 -1.12451541 92.80411671 10.41276641 130.47265625 43.50390625 C133 46 133 46 134 49 C133.48050781 49.43570313 132.96101562 49.87140625 132.42578125 50.3203125 C128.15129037 53.9706171 124.51741124 57.62700224 121 62 C119.34652117 63.68166313 117.67774042 65.34278472 116 67 C114.52396429 68.47448471 113.04878513 69.94982712 111.57421875 71.42578125 C107.04947917 75.95052083 102.52473958 80.47526042 98 85 C93.98574674 82.64296832 90.33551277 80.00676351 86.6875 77.125 C81.95024868 73.44106154 77.24264508 69.94361629 72 67 C71.3503125 66.60554688 70.700625 66.21109375 70.03125 65.8046875 C53.95125164 56.80215321 33.96001354 54.28285811 16 53 C16 35.84 16 18.68 16 1 C10.72 1 5.44 1 0 1 C0 0.67 0 0.34 0 0 Z " fill="#748F9E" transform="translate(234,80)"/>
<path d="M0 0 C0.49886719 0.3403125 0.99773437 0.680625 1.51171875 1.03125 C25.73572866 17.38354394 47.87112788 25.75931753 77 28 C77.33 45.82 77.66 63.64 78 82 C84.27 82 90.54 82 97 82 C97 82.33 97 82.66 97 83 C69.58894355 85.88904888 42.67467204 83.64199071 17 73 C17 72.34 17 71.68 17 71 C16.0925 70.896875 15.185 70.79375 14.25 70.6875 C10.8345018 69.96499076 9.67561355 69.10805916 7 67 C5.34100362 66.30322152 3.68163415 65.60730406 2.01953125 64.91796875 C-11.7957468 58.63829691 -25.17076538 48.54288466 -36 38 C-31.95678546 33.08257691 -27.62971838 28.58880849 -23.09814453 24.11767578 C-20.4746793 21.51553231 -17.95536261 18.87763249 -15.5625 16.0625 C-10.72428076 10.38233574 -5.31102982 5.2325417 0 0 Z " fill="#32526B" transform="translate(173,337)"/>
<path d="M0 0 C0 28.38 0 56.76 0 86 C1.98 86.495 1.98 86.495 4 87 C3.01 87 2.02 87 1 87 C1 89.64 1 92.28 1 95 C-5.75 95.125 -5.75 95.125 -8 94 C-8.625 90.9375 -8.625 90.9375 -9 88 C-9.7425 87.855625 -10.485 87.71125 -11.25 87.5625 C-13.52027739 87.09812508 -15.75759479 86.58136431 -18 86 C-18 85.34 -18 84.68 -18 84 C-18.763125 83.79375 -19.52625 83.5875 -20.3125 83.375 C-25.49898594 81.44105609 -30.19033084 78.7214854 -35 76 C-35 75.34 -35 74.68 -35 74 C-35.99 74 -36.98 74 -38 74 C-38 73.34 -38 72.68 -38 72 C-38.99 71.67 -39.98 71.34 -41 71 C-41 70.34 -41 69.68 -41 69 C-41.66 69 -42.32 69 -43 69 C-43 68.34 -43 67.68 -43 67 C-43.69351563 66.77699219 -44.38703125 66.55398437 -45.1015625 66.32421875 C-48.68831804 64.68552586 -51.43137155 62.38096012 -54.375 59.8125 C-54.95008301 59.31854736 -55.52516602 58.82459473 -56.11767578 58.31567383 C-59.70860342 55.20472166 -63.14362023 51.99264783 -66.43359375 48.5625 C-68.71570681 46.286078 -71.20218585 44.27736739 -73.71484375 42.26171875 C-74.13894531 41.84535156 -74.56304687 41.42898437 -75 41 C-75 40.34 -75 39.68 -75 39 C-75.639375 38.7525 -76.27875 38.505 -76.9375 38.25 C-79 37 -79 37 -79.81298828 35.13305664 C-80 33 -80 33 -78.84326172 31.28686523 C-56.45187976 10.4328659 -30.62355326 0 0 0 Z " fill="#1C2E43" transform="translate(249,134)"/>
<path d="M0 0 C16.20607798 0 16.20607798 0 23.5625 1.75 C24.36913086 1.93336914 25.17576172 2.11673828 26.00683594 2.30566406 C28.34383179 2.84869658 30.67232342 3.41847027 33 4 C34.76923828 4.433125 34.76923828 4.433125 36.57421875 4.875 C53.67056018 9.5854311 69.79802537 20.21363962 82 33 C80.7040639 35.84905441 79.33419618 37.92159788 77.12890625 40.13671875 C76.56051025 40.7093042 75.99211426 41.28188965 75.40649414 41.87182617 C74.49371704 42.77058472 74.49371704 42.77058472 73.5625 43.6875 C72.61588501 44.62396362 72.61588501 44.62396362 71.65014648 45.5793457 C66.36614789 50.74846025 60.87763722 55.51234456 55 60 C54.44763672 60.42877441 53.89527344 60.85754883 53.32617188 61.29931641 C41.51063897 70.43981785 29.08223674 77.84562768 15.5 84.0625 C14.86586182 84.36188477 14.23172363 84.66126953 13.57836914 84.96972656 C8.48116583 87.20481374 6.08312021 87 0 87 C0 58.29 0 29.58 0 0 Z " fill="#F9FAFA" transform="translate(250,133)"/>
<path d="M0 0 C32.09366512 0 53.34147697 19.37682665 74.890625 40.8269043 C77.60361741 43.5416199 80.30439346 46.26802096 83 49 C81.44383477 53.31482177 78.14119298 55.61645541 74.625 58.3125 C73.99505127 58.7981543 73.36510254 59.28380859 72.71606445 59.78417969 C50.45489131 76.66017293 27.79742208 82 0 82 C0 54.94 0 27.88 0 0 Z " fill="#F9FAFA" transform="translate(250,282)"/>
<path d="M0 0 C18 0 18 0 25 4 C27.55409981 7.72472889 27.20947036 11.51328966 26.6171875 15.83984375 C25.6524679 19.21636234 23.74327651 20.92581532 21 23 C20.34 23 19.68 23 19 23 C19.5053125 23.75925781 20.010625 24.51851562 20.53125 25.30078125 C21.1809375 26.29464844 21.830625 27.28851563 22.5 28.3125 C23.1496875 29.29863281 23.799375 30.28476562 24.46875 31.30078125 C26 34 26 34 26 37 C21.67279846 38.05972283 21.67279846 38.05972283 19 37 C16.95261558 34.02158516 15.40515901 30.99354353 13.87109375 27.72265625 C13.25363281 26.82417969 12.63617188 25.92570312 12 25 C10.02 24.67 8.04 24.34 6 24 C6 28.29 6 32.58 6 37 C4.02 37 2.04 37 0 37 C0 24.79 0 12.58 0 0 Z " fill="#EDEEEF" transform="translate(272,230)"/>
<path d="M0 0 C19.99152542 0 19.99152542 0 25.84765625 4.3828125 C28.24695387 7.74996238 27.57000514 12.07886572 27 16 C24.8812492 19.63214423 22.87608467 21.47917511 19 23 C14.98216016 23.26022279 11.0314117 23.08763938 7 23 C7 27.62 7 32.24 7 37 C4.69 37 2.38 37 0 37 C0 24.79 0 12.58 0 0 Z " fill="#EEF0F1" transform="translate(127,230)"/>
<path d="M0 0 C2.64 0 5.28 0 8 0 C8.2278418 0.57105469 8.45568359 1.14210937 8.69042969 1.73046875 C10.64209786 6.61643604 12.60434849 11.49791885 14.578125 16.375 C15.4687872 18.58331833 16.35941176 20.79165184 17.25 23 C17.93835938 24.69576172 17.93835938 24.69576172 18.640625 26.42578125 C19.07375 27.50214844 19.506875 28.57851563 19.953125 29.6875 C20.34661133 30.66074219 20.74009766 31.63398438 21.14550781 32.63671875 C22 35 22 35 22 37 C19.36 37 16.72 37 14 37 C13.01 33.535 13.01 33.535 12 30 C6.72 29.67 1.44 29.34 -4 29 C-4.33 30.32 -4.66 31.64 -5 33 C-5.63654342 34.3479743 -6.29605388 35.68596724 -7 37 C-9.31 37 -11.62 37 -14 37 C-11.86037483 30.38053464 -9.48952008 23.87021403 -7 17.375 C-6.65710938 16.47265625 -6.31421875 15.5703125 -5.9609375 14.640625 C-4.07795999 9.71038616 -2.11885404 4.83363579 0 0 Z " fill="#EFF0F0" transform="translate(316,230)"/>
<path d="M0 0 C2.31 0 4.62 0 7 0 C7.33 4.95 7.66 9.9 8 15 C8.85464844 14.00097656 9.70929688 13.00195312 10.58984375 11.97265625 C11.70570754 10.66925232 12.82159414 9.36586791 13.9375 8.0625 C14.50146484 7.40314453 15.06542969 6.74378906 15.64648438 6.06445312 C16.18466797 5.43603516 16.72285156 4.80761719 17.27734375 4.16015625 C17.77484131 3.57886963 18.27233887 2.99758301 18.78491211 2.39868164 C19.4986683 1.57708043 20.23042985 0.76957015 21 0 C22.51928038 -0.07179964 24.04167482 -0.08392007 25.5625 -0.0625 C26.38878906 -0.05347656 27.21507812 -0.04445312 28.06640625 -0.03515625 C28.70449219 -0.02355469 29.34257812 -0.01195312 30 0 C25.40525596 5.39882424 20.72323727 10.71333087 16 16 C17.30056327 18.81987336 18.72423146 21.02975659 20.78515625 23.34765625 C21.31560547 23.95287109 21.84605469 24.55808594 22.39257812 25.18164062 C23.50952067 26.43967065 24.62670981 27.69748178 25.74414062 28.95507812 C26.27330078 29.55900391 26.80246094 30.16292969 27.34765625 30.78515625 C27.83242432 31.33051025 28.31719238 31.87586426 28.81665039 32.43774414 C30 34 30 34 31 37 C25.52625505 38.14772072 25.52625505 38.14772072 22 37 C19.51351595 34.31807179 17.45665846 31.66741296 15.45166016 28.62426758 C14.38288711 27.02505506 13.19729344 25.50540523 12 24 C10.68 24 9.36 24 8 24 C7.67 28.29 7.34 32.58 7 37 C4.69 37 2.38 37 0 37 C0 24.79 0 12.58 0 0 Z " fill="#EEEFEF" transform="translate(379,230)"/>
<path d="M0 0 C3.91979179 1.82473066 5.45265502 2.90531005 7.375 6.75 C7.58125 7.4925 7.7875 8.235 8 9 C7 10 7 10 4.25 10.3125 C0.2784341 9.93061866 -0.97567911 8.48149406 -4 6 C-6.62778044 5.49864801 -6.62778044 5.49864801 -9 6 C-9.66 6.66 -10.32 7.32 -11 8 C-10.67958603 10.60280568 -10.67958603 10.60280568 -10 13 C-9.11957031 13.23074219 -8.23914063 13.46148437 -7.33203125 13.69921875 C5.03775942 17.17264499 5.03775942 17.17264499 8 22 C8.94402642 26.30056481 8.54248537 29.10877404 6.25 32.875 C1.48796435 37.37247812 -2.70665993 37.42909361 -9.078125 37.3203125 C-13.24380474 36.86364707 -14.97284611 35.86783 -18 33 C-19.78229676 30.32655486 -20 29.26229641 -20 26 C-16.6875 25.75 -16.6875 25.75 -13 26 C-12.525625 26.66 -12.05125 27.32 -11.5625 28 C-10.22206237 30.18369081 -10.22206237 30.18369081 -8.1171875 30.30078125 C-3.92037991 30.32546553 -3.92037991 30.32546553 0 29 C0 27.35 0 25.7 0 24 C-1.55460937 23.54560547 -1.55460937 23.54560547 -3.140625 23.08203125 C-4.5106931 22.65974999 -5.88046987 22.23652273 -7.25 21.8125 C-7.93191406 21.61591797 -8.61382812 21.41933594 -9.31640625 21.21679688 C-13.97232559 19.74769611 -16.44829002 18.17786268 -19 14 C-19.55747889 10.59318457 -19.77411846 8.27686698 -17.94140625 5.25390625 C-12.83502563 -1.06467155 -7.71266573 -0.7249503 0 0 Z " fill="#EDF0F1" transform="translate(114,230)"/>
<path d="M0 0 C4.86492233 2.18239506 7.3182169 4.59917353 9.77734375 9.3125 C9.77734375 9.9725 9.77734375 10.6325 9.77734375 11.3125 C6.58984375 12.125 6.58984375 12.125 2.77734375 12.3125 C1.99359375 11.508125 1.20984375 10.70375 0.40234375 9.875 C-2.45769345 7.08305892 -2.99860238 6.8858959 -6.78515625 6.75 C-10.05014963 6.92927584 -11.02831523 7.16674424 -13.72265625 9.1875 C-16.10169598 12.55780628 -16.38239123 14.52132969 -16.41015625 18.625 C-16.42433594 19.56988281 -16.43851562 20.51476562 -16.453125 21.48828125 C-16.20614164 24.51487393 -15.64946967 26.63426218 -14.22265625 29.3125 C-11.33770419 30.27415069 -9.23672271 30.53978086 -6.22265625 30.625 C-5.35640625 30.66238281 -4.49015625 30.69976562 -3.59765625 30.73828125 C-0.45581941 30.17502432 -0.01670177 28.8380021 1.77734375 26.3125 C5.46484375 26.0625 5.46484375 26.0625 8.77734375 26.3125 C8.509465 30.24138829 8.25297278 31.86126221 5.33984375 34.625 C-0.44657728 38.43556994 -6.44448375 38.09202696 -13.22265625 37.3125 C-18.98460374 34.8084356 -21.86534878 31.07325731 -24.22265625 25.3125 C-24.99667345 19.1761474 -25.16792483 13.34307696 -22.53515625 7.6875 C-15.91184902 0.88518446 -9.55430047 -2.9552845 0 0 Z " fill="#EBECED" transform="translate(364.22265625,229.6875)"/>
<path d="M0 0 C9.9 0 19.8 0 30 0 C30 1.98 30 3.96 30 6 C26.37 6 22.74 6 19 6 C19 16.23 19 26.46 19 37 C16.69 37 14.38 37 12 37 C12 26.77 12 16.54 12 6 C8.04 6 4.08 6 0 6 C0 4.02 0 2.04 0 0 Z " fill="#EDEFF0" transform="translate(202,230)"/>
<path d="M0 0 C10.23 0 20.46 0 31 0 C31 1.98 31 3.96 31 6 C27.04 6 23.08 6 19 6 C19 16.23 19 26.46 19 37 C17.02 37 15.04 37 13 37 C13 26.77 13 16.54 13 6 C8.71 6 4.42 6 0 6 C0 4.02 0 2.04 0 0 Z " fill="#F2F3F4" transform="translate(236,230)"/>
<path d="M0 0 C1.98 0 3.96 0 6 0 C6 10.23 6 20.46 6 31 C11.61 31 17.22 31 23 31 C23 32.98 23 34.96 23 37 C15.41 37 7.82 37 0 37 C0 24.79 0 12.58 0 0 Z " fill="#F6F7F7" transform="translate(160,230)"/>
<path d="M0 0 C6.37490008 0.34772182 6.37490008 0.34772182 8.4375 2.5 C11.13462759 5.08924249 14.35795635 4.76875913 18 5 C18.66 4.67 19.32 4.34 20 4 C22.26598448 7.39897673 22.23742654 8.56319173 22.1953125 12.54296875 C22.18886719 13.61611328 22.18242188 14.68925781 22.17578125 15.79492188 C22.15902344 16.91447266 22.14226562 18.03402344 22.125 19.1875 C22.11597656 20.31865234 22.10695313 21.44980469 22.09765625 22.61523438 C22.07406862 25.41036828 22.041153 28.20507845 22 31 C21.67 31 21.34 31 21 31 C21 28.69 21 26.38 21 24 C20.34 24 19.68 24 19 24 C18.731875 24.598125 18.46375 25.19625 18.1875 25.8125 C17.01506533 27.97224808 15.80630718 29.35790256 14 31 C14 28 14 28 16 25 C16.72593661 19.53783615 16.72593661 19.53783615 14.390625 14.87890625 C11.47867499 12.5902658 8.94244442 11.83329771 5.375 10.875 C-0.80555556 9.19444444 -0.80555556 9.19444444 -3 7 C-2.67028521 3.70285207 -2.3773161 2.3773161 0 0 Z " fill="#2D465C" transform="translate(105,235)"/>
<path d="M0 0 C1.98 0 3.96 0 6 0 C6 12.21 6 24.42 6 37 C4.02 37 2.04 37 0 37 C0 24.79 0 12.58 0 0 Z " fill="#FBFBFB" transform="translate(190,230)"/>
<path d="M0 0 C12.33333333 12.33333333 24.66666667 24.66666667 37 37 C37.61875 36.690625 38.2375 36.38125 38.875 36.0625 C40.25 35.375 41.625 34.6875 43 34 C40.52241061 39.57457614 36.84184017 43.36861987 32 47 C31.01 46.505 31.01 46.505 30 46 C30.680625 45.4225 31.36125 44.845 32.0625 44.25 C34.19486482 42.24979316 34.19486482 42.24979316 34.0625 40.0625 C31.96787599 35.99646516 28.43116923 33.35197488 24.9375 30.5 C22.18754889 28.15961608 20.2017103 25.84091652 18 23 C16.34657774 21.32019335 14.67717423 19.65609243 13 18 C11.91200965 16.9135117 10.82480588 15.82623531 9.73828125 14.73828125 C9.17689453 14.17689453 8.61550781 13.61550781 8.03710938 13.03710938 C4.69140625 9.69140625 1.34570312 6.34570312 -2 3 C-1.34 2.01 -0.68 1.02 0 0 Z " fill="#67707A" transform="translate(333,331)"/>
<path d="M0 0 C0.99 0.33 1.98 0.66 3 1 C1.64768813 4.02977429 0.14519457 6.08472613 -2.23046875 8.390625 C-2.86500977 9.01356445 -3.49955078 9.63650391 -4.15332031 10.27832031 C-4.82459961 10.92897461 -5.49587891 11.57962891 -6.1875 12.25 C-10.72051227 16.70628992 -15.13901883 21.15245804 -19.23828125 26.015625 C-23.26620271 30.55261857 -27.67654925 34.74691282 -32 39 C-32.99 38.67 -33.98 38.34 -35 38 C-33.54957091 34.65415036 -31.72261175 32.49945964 -29.12109375 29.9609375 C-27.98704102 28.84332031 -27.98704102 28.84332031 -26.83007812 27.703125 C-26.04052734 26.93484375 -25.25097656 26.1665625 -24.4375 25.375 C-22.87152109 23.84336831 -21.30761061 22.30961805 -19.74609375 20.7734375 C-19.05185303 20.09716309 -18.3576123 19.42088867 -17.64233398 18.72412109 C-15.92043505 17.08511449 -15.92043505 17.08511449 -15 15 C-14.34 15 -13.68 15 -13 15 C-12.78601563 14.45859375 -12.57203125 13.9171875 -12.3515625 13.359375 C-10.51922057 10.1607203 -8.00203394 7.79035516 -5.375 5.25 C-4.859375 4.74339844 -4.34375 4.23679687 -3.8125 3.71484375 C-2.54616661 2.47196098 -1.2736856 1.23534724 0 0 Z " fill="#B0C0C9" transform="translate(170,335)"/>
<path d="M0 0 C0.495 0.99 0.495 0.99 1 2 C1.66 2.33 2.32 2.66 3 3 C-9.21 15.21 -21.42 27.42 -34 40 C-34.99 39.67 -35.98 39.34 -37 39 C-32.53378902 33.5129408 -27.63423071 28.56294692 -22.58325195 23.62036133 C-20.28289288 21.35524123 -18.15332768 19.20748315 -16.23046875 16.60546875 C-15.82441406 16.07566406 -15.41835938 15.54585937 -15 15 C-14.34 15 -13.68 15 -13 15 C-12.7628125 14.43796875 -12.525625 13.8759375 -12.28125 13.296875 C-10.71052303 10.48105958 -8.78528536 8.52044584 -6.5 6.25 C-5.30890625 5.05117187 -5.30890625 5.05117187 -4.09375 3.828125 C-2 2 -2 2 0 2 C0 1.34 0 0.68 0 0 Z " fill="#B9CBD3" transform="translate(368,127)"/>
<path d="M0 0 C8.3984375 -0.1953125 8.3984375 -0.1953125 11 0 C13 2 13 2 13.3125 4.9375 C13 8 13 8 11.8046875 9.6796875 C9.37261522 11.45899579 7.79170104 11.30357277 4.8125 11.1875 C3.224375 11.125625 1.63625 11.06375 0 11 C0 7.37 0 3.74 0 0 Z " fill="#0F1927" transform="translate(279,237)"/>
<path d="M0 0 C9.625 -0.25 9.625 -0.25 13 2 C13.43132515 6.05445642 13.30019361 7.54970958 11 11 C7.30406029 11.41620943 3.72880913 11.13007474 0 11 C0 7.37 0 3.74 0 0 Z " fill="#252E3A" transform="translate(134,236)"/>
<path d="M0 0 C0.99 0.33 1.98 0.66 3 1 C4.6396875 0.938125 4.6396875 0.938125 6.3125 0.875 C10.34092152 1.01155666 12.55832419 1.9853605 16 4 C16.1875 6.375 16.1875 6.375 16 9 C11.93150591 11.71232939 9.83523216 11.30699887 5 11 C4.34 10.34 3.68 9.68 3 9 C3 7.68 3 6.36 3 5 C1.35 5 -0.3 5 -2 5 C-1.34 4.67 -0.68 4.34 0 4 C0 2.68 0 1.36 0 0 Z " fill="#283E52" transform="translate(99,250)"/>
<path d="M0 0 C6.22466216 0.33952703 6.22466216 0.33952703 8.6875 2.4375 C9.120625 2.953125 9.55375 3.46875 10 4 C12.09989652 5.17574711 12.09989652 5.17574711 14 6 C12.68 6 11.36 6 10 6 C10.66 6.33 11.32 6.66 12 7 C12 8.65 12 10.3 12 12 C10.24788218 11.74322411 8.49832064 11.46897047 6.75 11.1875 C5.77546875 11.03667969 4.8009375 10.88585937 3.796875 10.73046875 C0.87677662 9.96781736 -0.74205815 8.96225899 -3 7 C-2.25 2.25 -2.25 2.25 0 0 Z " fill="#384E63" transform="translate(105,235)"/>
<path d="M0 0 C0.66 0 1.32 0 2 0 C2.83719383 2.29032311 3.6698929 4.58210957 4.5 6.875 C4.73847656 7.52597656 4.97695313 8.17695313 5.22265625 8.84765625 C7 13.7734375 7 13.7734375 7 16 C3.04 16 -0.92 16 -5 16 C-3.40615011 10.63886855 -1.8106711 5.29273092 0 0 Z " fill="#30343F" transform="translate(319,238)"/>
<path d="M0 0 C6.33333333 6.33333333 12.66666667 12.66666667 19 19 C18.34 19.33 17.68 19.66 17 20 C16.67 20.66 16.34 21.32 16 22 C15.59910156 21.52691406 15.19820313 21.05382812 14.78515625 20.56640625 C10.10097888 15.11746523 5.12613548 10.03217373 0 5 C-0.66 4.34 -1.32 3.68 -2 3 C-1.34 2.01 -0.68 1.02 0 0 Z " fill="#444F58" transform="translate(333,331)"/>
<path d="M0 0 C6.78376359 5.55035203 12.85522968 11.76442027 19 18 C18.67 18.99 18.34 19.98 18 21 C11.21623641 15.44964797 5.14477032 9.23557973 -1 3 C-0.67 2.01 -0.34 1.02 0 0 Z " fill="#C0CEDA" transform="translate(149,149)"/>
<path d="M0 0 C0.33 0.66 0.66 1.32 1 2 C1.66 2.33 2.32 2.66 3 3 C-1.29 7.29 -5.58 11.58 -10 16 C-10.33 15.34 -10.66 14.68 -11 14 C-11.66 13.67 -12.32 13.34 -13 13 C-11.21427748 11.16052663 -9.42197551 9.32842259 -7.625 7.5 C-7.11710937 6.97535156 -6.60921875 6.45070312 -6.0859375 5.91015625 C-4.76167396 4.56846819 -3.38394135 3.28004185 -2 2 C-1.34 2 -0.68 2 0 2 C0 1.34 0 0.68 0 0 Z " fill="#ADBFC8" transform="translate(368,127)"/>
<path d="M0 0 C0.99 0.33 1.98 0.66 3 1 C1.4700928 4.60561914 -0.68696932 6.9859199 -3.4375 9.75 C-4.61119141 10.94882812 -4.61119141 10.94882812 -5.80859375 12.171875 C-8 14 -8 14 -11 14 C-11.66 13.67 -12.32 13.34 -13 13 C-8.71 8.71 -4.42 4.42 0 0 Z " fill="#94A6B1" transform="translate(170,335)"/>
<path d="M0 0 C3 4 3 4 2.6875 6.859375 C2.3471875 8.41398438 2.3471875 8.41398438 2 10 C1.95770753 12.08290401 1.95895706 14.16707099 2 16.25 C2.05193013 21.90389276 1.70870109 27.39366813 1 33 C0.67 33 0.34 33 0 33 C0 22.11 0 11.22 0 0 Z " fill="#141C28" transform="translate(197,235)"/>
<path d="M0 0 C3.63 0 7.26 0 11 0 C9 2 9 2 5.375 2.125 C4.26125 2.08375 3.1475 2.0425 2 2 C1.97299325 4.91672884 1.95315763 7.83320677 1.9375 10.75 C1.92912109 11.575 1.92074219 12.4 1.91210938 13.25 C1.90888672 14.04921875 1.90566406 14.8484375 1.90234375 15.671875 C1.89710693 16.4050293 1.89187012 17.13818359 1.88647461 17.89355469 C1.92658245 20.01750954 1.92658245 20.01750954 2.56469727 22.06738281 C3.23250807 25.03226801 2.06911071 27.23288992 1 30 C0.67 30 0.34 30 0 30 C0 20.1 0 10.2 0 0 Z " fill="#0F1721" transform="translate(221,237)"/>
<path d="M0 0 C1.32 1.32 2.64 2.64 4 4 C3.75 6.25 3.75 6.25 3 8 C2.67 7.67 2.34 7.34 2 7 C2 13.6 2 20.2 2 27 C3.32 27.33 4.64 27.66 6 28 C4.02 28 2.04 28 0 28 C0 18.76 0 9.52 0 0 Z " fill="#131E29" transform="translate(167,233)"/>
<path d="M0 0 C4.62 0 9.24 0 14 0 C11.85279101 2.14720899 10.92209857 2.5434221 8 3 C7.34 2.67 6.68 2.34 6 2 C6.350625 2.598125 6.70125 3.19625 7.0625 3.8125 C8 6 8 6 7 9 C5.62437146 7.71034824 4.29233607 6.37310707 3 5 C3 4.34 3 3.68 3 3 C2.34 3 1.68 3 1 3 C0.67 2.01 0.34 1.02 0 0 Z " fill="#2E4354" transform="translate(101,267)"/>
<path d="M0 0 C3.3 0 6.6 0 10 0 C10 3.3 10 6.6 10 10 C6.66666667 6.66666667 3.33333333 3.33333333 0 0 Z " fill="#1A2530" transform="translate(238,237)"/>
<path d="M0 0 C0.144375 0.9075 0.28875 1.815 0.4375 2.75 C0.86409473 5.21476956 1.35074221 7.58847107 2 10 C-2.72254335 8.50867052 -2.72254335 8.50867052 -4.125 5.9375 C-4.558125 4.9784375 -4.558125 4.9784375 -5 4 C-5.99 3.67 -6.98 3.34 -8 3 C-8 2.34 -8 1.68 -8 1 C-2.25 0 -2.25 0 0 0 Z " fill="#233B50" transform="translate(136,267)"/>
<path d="M0 0 C1.37478516 0.01740234 1.37478516 0.01740234 2.77734375 0.03515625 C3.69644531 0.04417969 4.61554688 0.05320312 5.5625 0.0625 C6.27277344 0.07410156 6.98304687 0.08570313 7.71484375 0.09765625 C8.04484375 1.08765625 8.37484375 2.07765625 8.71484375 3.09765625 C6.50188759 4.20413433 5.16811676 4.29353993 2.71484375 4.34765625 C2.01359375 4.3734375 1.31234375 4.39921875 0.58984375 4.42578125 C-0.02890625 4.3175 -0.64765625 4.20921875 -1.28515625 4.09765625 C-1.94515625 3.10765625 -2.60515625 2.11765625 -3.28515625 1.09765625 C-2.28515625 0.09765625 -2.28515625 0.09765625 0 0 Z " fill="#2D4557" transform="translate(105.28515625,256.90234375)"/>
<path d="M0 0 C4.29 0 8.58 0 13 0 C9.32326162 1.83836919 5.95007553 2.93651813 2 4 C2 6.64 2 9.28 2 12 C1.34 11.67 0.68 11.34 0 11 C0 7.37 0 3.74 0 0 Z " fill="#202630" transform="translate(134,253)"/>
<path d="M0 0 C3.62613199 0.56959153 5.25517741 1.92374534 7.75 4.5625 C8.36359375 5.20316406 8.9771875 5.84382813 9.609375 6.50390625 C10.06828125 6.99761719 10.5271875 7.49132812 11 8 C10.01 8.495 10.01 8.495 9 9 C8.67 9.66 8.34 10.32 8 11 C6.84852339 9.73427767 5.70400686 8.46222094 4.5625 7.1875 C3.92441406 6.47980469 3.28632813 5.77210938 2.62890625 5.04296875 C1 3 1 3 0 0 Z " fill="#4F5A64" transform="translate(341,342)"/>
<path d="M0 0 C2.31 0 4.62 0 7 0 C7.103125 0.639375 7.20625 1.27875 7.3125 1.9375 C7.539375 2.618125 7.76625 3.29875 8 4 C8.99 4.33 9.98 4.66 11 5 C11 5.99 11 6.98 11 8 C6.40378078 6.5129879 3.53027653 4.20187872 0 1 C0 0.67 0 0.34 0 0 Z " fill="#1E2B38" transform="translate(162,268)"/>
<path d="M0 0 C0.33 0.99 0.66 1.98 1 3 C1.66 3 2.32 3 3 3 C3.33 2.34 3.66 1.68 4 1 C4 4.3 4 7.6 4 11 C3.67 11 3.34 11 3 11 C3 8.69 3 6.38 3 4 C2.34 4 1.68 4 1 4 C0.731875 4.598125 0.46375 5.19625 0.1875 5.8125 C-0.98493467 7.97224808 -2.19369282 9.35790256 -4 11 C-4 7.80389448 -3.45328458 6.58282374 -2 3.8125 C-1.62875 3.09707031 -1.2575 2.38164062 -0.875 1.64453125 C-0.441875 0.83048828 -0.441875 0.83048828 0 0 Z " fill="#293B4A" transform="translate(123,255)"/>
<path d="M0 0 C3.3 0 6.6 0 10 0 C10 0.33 10 0.66 10 1 C7.69 1 5.38 1 3 1 C3 3.64 3 6.28 3 9 C2.34 9 1.68 9 1 9 C0.67 6.03 0.34 3.06 0 0 Z " fill="#2A3B46" transform="translate(134,236)"/>
<path d="M0 0 C3.36591866 1.44253657 5.51047079 3.33264727 8 6 C7.67 6.99 7.34 7.98 7 9 C5.82460004 8.07347299 4.65989423 7.13336613 3.5 6.1875 C2.52546875 5.40439453 2.52546875 5.40439453 1.53125 4.60546875 C0 3 0 3 0 0 Z " fill="#B0C1D1" transform="translate(160,161)"/>
<path d="M0 0 C2 1 2 1 2.8125 2.6875 C3.09105937 6.12306561 1.76196792 8.10533842 0 11 C-0.99 11.66 -1.98 12.32 -3 13 C-2.17812739 8.61667943 -1.09845718 4.32059823 0 0 Z " fill="#1F2934" transform="translate(155,238)"/>
<path d="M0 0 C0.33 0.66 0.66 1.32 1 2 C0.09515208 3.15518918 -0.8244206 4.29885406 -1.75 5.4375 C-2.26046875 6.07558594 -2.7709375 6.71367187 -3.296875 7.37109375 C-5.19667629 9.18810554 -6.43586908 9.60423197 -9 10 C-8.06409496 8.8944811 -7.12620142 7.79064547 -6.1875 6.6875 C-5.66542969 6.07261719 -5.14335937 5.45773437 -4.60546875 4.82421875 C-3.12827531 3.14575321 -1.59960869 1.56117966 0 0 Z " fill="#B4BFC7" transform="translate(194,309)"/>
<path d="M0 0 C0.268125 0.639375 0.53625 1.27875 0.8125 1.9375 C1.88667752 4.33131686 1.88667752 4.33131686 5 5 C5.625 7.375 5.625 7.375 6 10 C5.34 10.66 4.68 11.32 4 12 C3.67 10.02 3.34 8.04 3 6 C2.34 6 1.68 6 1 6 C0.67 4.02 0.34 2.04 0 0 Z " fill="#878E96" transform="translate(409,186)"/>
<path d="M0 0 C2.88575819 0.39803561 3.82189513 0.79009069 5.75 3.0625 C6.1625 3.701875 6.575 4.34125 7 5 C6.01 6.485 6.01 6.485 5 8 C0 2.25 0 2.25 0 0 Z " fill="#5B6671" transform="translate(350,351)"/>
<path d="M0 0 C0.66 0.33 1.32 0.66 2 1 C1.38125 1.5775 0.7625 2.155 0.125 2.75 C-1.81347053 4.80249821 -2.90014249 6.43366582 -4 9 C-4.66 7.35 -5.32 5.7 -6 4 C-4.02 2.68 -2.04 1.36 0 0 Z " fill="#242832" transform="translate(297,249)"/>
<path d="M0 0 C3.3 0.33 6.6 0.66 10 1 C10.33 1.99 10.66 2.98 11 4 C9.35232753 3.71890887 7.70686855 3.42481474 6.0625 3.125 C4.68771484 2.88136719 4.68771484 2.88136719 3.28515625 2.6328125 C2.53105469 2.42398437 1.77695313 2.21515625 1 2 C0.67 1.34 0.34 0.68 0 0 Z " fill="#6E7F8B" transform="translate(194,410)"/>
<path d="M0 0 C2.79872437 2.52788007 4.45773019 4.20411134 5 8 C4.34 8 3.68 8 3 8 C3 7.34 3 6.68 3 6 C2.01 6 1.02 6 0 6 C0 4.02 0 2.04 0 0 Z " fill="#233340" transform="translate(184,263)"/>
<path d="M0 0 C2.97 0.33 5.94 0.66 9 1 C8.67 1.66 8.34 2.32 8 3 C5.69 3 3.38 3 1 3 C0.67 2.01 0.34 1.02 0 0 Z " fill="#FBFBF7" transform="translate(104,230)"/>
<path d="M0 0 C1 2 1 2 0.1875 4.5625 C-1 7 -1 7 -3 8 C-3 7.34 -3 6.68 -3 6 C-4.32 6.33 -5.64 6.66 -7 7 C-4.66666667 4.66666667 -2.33333333 2.33333333 0 0 Z " fill="#293748" transform="translate(338,162)"/>
<path d="M0 0 C-0.3125 1.875 -0.3125 1.875 -1 4 C-1.99 4.66 -2.98 5.32 -4 6 C-4.66 5.01 -5.32 4.02 -6 3 C-2.25 0 -2.25 0 0 0 Z " fill="#B4C6D0" transform="translate(357,141)"/>
<path d="M0 0 C0.33 1.32 0.66 2.64 1 4 C1.66 4 2.32 4 3 4 C3 5.98 3 7.96 3 10 C2.01 10.495 2.01 10.495 1 11 C-0.28317892 7.15046324 -0.06643637 4.05261865 0 0 Z " fill="#6C7781" transform="translate(418,215)"/>
<path d="M0 0 C0 1.98 0 3.96 0 6 C-0.66 6 -1.32 6 -2 6 C-2.33 5.01 -2.66 4.02 -3 3 C-4.65 2.67 -6.3 2.34 -8 2 C-8 1.67 -8 1.34 -8 1 C-2.25 0 -2.25 0 0 0 Z " fill="#1E2E3F" transform="translate(136,267)"/>
<path d="M0 0 C1.65 0.33 3.3 0.66 5 1 C4.67 1.99 4.34 2.98 4 4 C2.68 3.67 1.36 3.34 0 3 C0 2.01 0 1.02 0 0 Z " fill="#3C5367" transform="translate(103,257)"/>
</svg>
